<?xml version="1.0" encoding="UTF-8" standalone="no"?>
<!-- Created with Inkscape (http://www.inkscape.org/) -->
<svg
   xmlns:dc="http://purl.org/dc/elements/1.1/"
   xmlns:cc="http://creativecommons.org/ns#"
   xmlns:rdf="http://www.w3.org/1999/02/22-rdf-syntax-ns#"
   xmlns:svg="http://www.w3.org/2000/svg"
   xmlns="http://www.w3.org/2000/svg"
   xmlns:sodipodi="http://sodipodi.sourceforge.net/DTD/sodipodi-0.dtd"
   xmlns:inkscape="http://www.inkscape.org/namespaces/inkscape"
   width="800"
   height="800"
   id="svg2"
   sodipodi:version="0.32"
   inkscape:version="0.46"
   version="1.0"
   sodipodi:docname="bar1_border.svg"
   inkscape:output_extension="org.inkscape.output.svg.inkscape"
   style="display:inline">
  <sodipodi:namedview
     id="base"
     pagecolor="#a7a7a7"
     bordercolor="#666666"
     borderopacity="1.0"
     gridtolerance="10000"
     guidetolerance="10"
     objecttolerance="10"
     inkscape:pageopacity="0"
     inkscape:pageshadow="2"
     inkscape:zoom="0.7"
     inkscape:cx="278.05153"
     inkscape:cy="359.46999"
     inkscape:document-units="px"
     inkscape:current-layer="layer1"
     showgrid="false"
     inkscape:showpageshadow="false"
     inkscape:window-width="1034"
     inkscape:window-height="720"
     inkscape:window-x="4"
     inkscape:window-y="22" />
  <defs
     id="defs4">
    <inkscape:perspective
       sodipodi:type="inkscape:persp3d"
       inkscape:vp_x="0 : 526.18109 : 1"
       inkscape:vp_y="0 : 1000 : 0"
       inkscape:vp_z="744.09448 : 526.18109 : 1"
       inkscape:persp3d-origin="372.04724 : 350.78739 : 1"
       id="perspective10" />
  </defs>
  <metadata
     id="metadata7">
    <rdf:RDF>
      <cc:Work
         rdf:about="">
        <dc:format>image/svg+xml</dc:format>
        <dc:type
           rdf:resource="http://purl.org/dc/dcmitype/StillImage" />
      </cc:Work>
    </rdf:RDF>
  </metadata>
  <g
     inkscape:label="Layer 1"
     inkscape:groupmode="layer"
     id="layer1"
     style="display:inline">
    <path
       id="path2888"
       d="M 242.65625,51.71875 C 242.34512,51.72425 242.03776,51.78784 241.75,51.90625 L 223.21875,59.40625 C 221.94249,59.92492 221.32726,61.3791 221.84375,62.65625 C 264.1835,167.50142 287.5,282.03563 287.5,402 C 287.5,521.96437 264.1835,636.49858 221.84375,741.34375 C 221.32726,742.6209 221.94249,744.07508 223.21875,744.59375 L 241.75,752.09375 C 243.02715,752.61024 244.48133,751.99501 245,750.71875 C 288.51139,642.97808 312.5,525.26176 312.5,402 C 312.5,278.73824 288.51139,161.02192 245,53.28125 C 244.61503,52.32749 243.68471,51.70728 242.65625,51.71875 z M 242.6875,54.21875 C 286.08171,161.66926 310,279.06214 310,402 C 310,524.93786 286.08171,642.33074 242.6875,749.78125 L 224.15625,742.28125 C 266.61323,637.14577 290,522.28804 290,402 C 290,281.71196 266.61323,166.85423 224.15625,61.71875 L 242.6875,54.21875 z"
       style="opacity:0.6;fill:#404040;fill-opacity:1;stroke:none;stroke-width:5;stroke-miterlimit:4;stroke-dasharray:none;stroke-opacity:1" />
  </g>
</svg>
