<?xml version="1.0" encoding="UTF-8" standalone="no"?>
<!-- Created with Inkscape (http://www.inkscape.org/) -->

<svg
   xmlns:dc="http://purl.org/dc/elements/1.1/"
   xmlns:cc="http://creativecommons.org/ns#"
   xmlns:rdf="http://www.w3.org/1999/02/22-rdf-syntax-ns#"
   xmlns:svg="http://www.w3.org/2000/svg"
   xmlns="http://www.w3.org/2000/svg"
   xmlns:sodipodi="http://sodipodi.sourceforge.net/DTD/sodipodi-0.dtd"
   xmlns:inkscape="http://www.inkscape.org/namespaces/inkscape"
   width="800"
   height="800"
   id="svg2"
   sodipodi:version="0.32"
   inkscape:version="0.48.0 r9654"
   version="1.0"
   sodipodi:docname="bar2_border.svg"
   inkscape:output_extension="org.inkscape.output.svg.inkscape"
   style="display:inline">
  <sodipodi:namedview
     id="base"
     pagecolor="#a7a7a7"
     bordercolor="#666666"
     borderopacity="1.0"
     gridtolerance="10000"
     guidetolerance="10"
     objecttolerance="10"
     inkscape:pageopacity="0"
     inkscape:pageshadow="2"
     inkscape:zoom="0.49497475"
     inkscape:cx="-4.3723843"
     inkscape:cy="438.00763"
     inkscape:document-units="px"
     inkscape:current-layer="layer1"
     showgrid="false"
     inkscape:showpageshadow="false"
     inkscape:window-width="1034"
     inkscape:window-height="720"
     inkscape:window-x="4"
     inkscape:window-y="22"
     inkscape:window-maximized="0" />
  <defs
     id="defs4">
    <inkscape:perspective
       sodipodi:type="inkscape:persp3d"
       inkscape:vp_x="0 : 526.18109 : 1"
       inkscape:vp_y="0 : 1000 : 0"
       inkscape:vp_z="744.09448 : 526.18109 : 1"
       inkscape:persp3d-origin="372.04724 : 350.78739 : 1"
       id="perspective10" />
  </defs>
  <metadata
     id="metadata7">
    <rdf:RDF>
      <cc:Work
         rdf:about="">
        <dc:format>image/svg+xml</dc:format>
        <dc:type
           rdf:resource="http://purl.org/dc/dcmitype/StillImage" />
      </cc:Work>
    </rdf:RDF>
  </metadata>
  <g
     inkscape:label="Layer 1"
     inkscape:groupmode="layer"
     id="layer1"
     style="display:inline">
    <path
       id="path2877"
       d="M 249.03125,51.6875 C 292.74297,159.92383 316.8125,278.15265 316.8125,402 c 0,123.84735 -24.06953,242.07617 -67.78125,350.3125 l 61.375,24.75 c 7.44104,-18.45904 14.34166,-36.89597 20.6875,-55.34375 0.0105,-0.0103 0.0209,-0.0208 0.0312,-0.0312 C 364.90151,621.26003 383.1875,513.75372 383.1875,402 c 0,-111.75372 -18.28599,-219.26003 -52.0625,-319.6875 -0.0103,-0.01049 -0.0208,-0.02091 -0.0312,-0.03125 C 324.74796,63.83347 317.84734,45.39654 310.4063,26.9375 z m 58.4375,-23.5625 c 7.42123,18.4099 14.29771,36.79364 20.625,55.1875 C 361.76213,183.41847 380,290.59373 380,402 c 0,111.40627 -18.23787,218.58153 -51.90625,318.6875 -6.32729,18.39386 -13.20377,36.7776 -20.625,55.1875 l -55.5,-22.375 C 295.82984,644.89381 320,526.26018 320,402 320,277.73982 295.82984,159.10619 251.96875,50.5 z"
       style="opacity:0.6;fill:#4c4c4c;fill-opacity:1;stroke:none"
       inkscape:connector-curvature="0"
       sodipodi:nodetypes="csccccsccccccscccscc" />
  </g>
</svg>
