<?xml version="1.0" encoding="UTF-8" standalone="no"?>
<!-- Created with Inkscape (http://www.inkscape.org/) -->

<svg
   xmlns:dc="http://purl.org/dc/elements/1.1/"
   xmlns:cc="http://creativecommons.org/ns#"
   xmlns:rdf="http://www.w3.org/1999/02/22-rdf-syntax-ns#"
   xmlns:svg="http://www.w3.org/2000/svg"
   xmlns="http://www.w3.org/2000/svg"
   xmlns:sodipodi="http://sodipodi.sourceforge.net/DTD/sodipodi-0.dtd"
   xmlns:inkscape="http://www.inkscape.org/namespaces/inkscape"
   width="100"
   height="100"
   id="svg3021"
   version="1.1"
   inkscape:version="0.48.2 r9819"
   sodipodi:docname="Clock.svg"
   inkscape:export-filename="C:\World of Warcraft\Interface\AddOns\THUD\Textures\Clock.png"
   inkscape:export-xdpi="115.2"
   inkscape:export-ydpi="115.2">
  <defs
     id="defs3023" />
  <sodipodi:namedview
     id="base"
     pagecolor="#ffffff"
     bordercolor="#666666"
     borderopacity="1.0"
     inkscape:pageopacity="0"
     inkscape:pageshadow="2"
     inkscape:zoom="2.8284271"
     inkscape:cx="59.498664"
     inkscape:cy="40.092355"
     inkscape:document-units="px"
     inkscape:current-layer="layer1"
     showgrid="false"
     inkscape:showpageshadow="false"
     inkscape:window-width="1092"
     inkscape:window-height="702"
     inkscape:window-x="376"
     inkscape:window-y="204"
     inkscape:window-maximized="0"
     inkscape:snap-bbox="true"
     inkscape:bbox-nodes="true"
     inkscape:snap-object-midpoints="false"
     inkscape:snap-page="true"
     fit-margin-top="0"
     fit-margin-left="0"
     fit-margin-right="0"
     fit-margin-bottom="0"
     inkscape:snap-global="true"
     showguides="true"
     inkscape:guide-bbox="true"
     inkscape:snap-grids="false"
     inkscape:snap-smooth-nodes="true"
     inkscape:snap-bbox-edge-midpoints="true"
     inkscape:snap-to-guides="false">
    <sodipodi:guide
       orientation="0,1"
       position="20,20"
       id="guide3788" />
    <sodipodi:guide
       orientation="0,1"
       position="1,99"
       id="guide3797" />
    <sodipodi:guide
       orientation="1,0"
       position="1,1"
       id="guide3799" />
    <sodipodi:guide
       orientation="0,1"
       position="11,89"
       id="guide3801" />
    <sodipodi:guide
       orientation="1,0"
       position="11,89"
       id="guide3803" />
    <sodipodi:guide
       orientation="0,1"
       position="89,50"
       id="guide3814" />
    <sodipodi:guide
       orientation="1,0"
       position="50,11"
       id="guide3816" />
  </sodipodi:namedview>
  <metadata
     id="metadata3026">
    <rdf:RDF>
      <cc:Work
         rdf:about="">
        <dc:format>image/svg+xml</dc:format>
        <dc:type
           rdf:resource="http://purl.org/dc/dcmitype/StillImage" />
        <dc:title></dc:title>
      </cc:Work>
    </rdf:RDF>
  </metadata>
  <g
     inkscape:groupmode="layer"
     id="layer2"
     inkscape:label="Backup"
     style="display:none">
    <path
       id="path3847"
       d="M 50,1 C 22.938047,1 1,22.938047 1,50 1,77.061953 22.938047,99 50,99 77.061953,99 99,77.061953 99,50 99,22.938047 77.061953,1 50,1 z m 0,10 C 71.539105,11 89,28.460895 89,50 89,71.539105 71.539105,89 50,89 28.460895,89 11,71.539105 11,50 11,28.460895 28.460895,11 50,11 z"
       style="opacity:0.5;fill:#000000;fill-opacity:1;fill-rule:nonzero;stroke:none"
       inkscape:connector-curvature="0" />
    <flowRoot
       transform="translate(9.0507813,3.31034)"
       style="font-size:14px;font-style:normal;font-variant:normal;font-weight:normal;font-stretch:normal;line-height:125%;letter-spacing:0px;word-spacing:0px;fill:#00ff00;fill-opacity:1;stroke:none;font-family:Tahoma;-inkscape-font-specification:Sans"
       id="flowRoot3850"
       xml:space="preserve"><flowRegion
         id="flowRegion3852"><rect
           style="fill:#00ff00"
           y="-3.2500002"
           x="34.25"
           height="23.75"
           width="34.75"
           id="rect3854" /></flowRegion><flowPara
         style="font-size:10px;font-weight:bold;-inkscape-font-specification:Tahoma Bold"
         id="flowPara3856">12</flowPara></flowRoot>    <flowRoot
       xml:space="preserve"
       id="flowRoot3858"
       style="font-size:14px;font-style:normal;font-variant:normal;font-weight:normal;font-stretch:normal;line-height:125%;letter-spacing:0px;word-spacing:0px;fill:#00ff00;fill-opacity:1;stroke:none;font-family:Tahoma;-inkscape-font-specification:Sans"
       transform="translate(56.55107,47.31034)"><flowRegion
         id="flowRegion3860"><rect
           id="rect3862"
           width="34.75"
           height="23.75"
           x="34.25"
           y="-3.2500002"
           style="fill:#00ff00" /></flowRegion><flowPara
         id="flowPara3864"
         style="font-size:10px;font-weight:bold;-inkscape-font-specification:Tahoma Bold">3</flowPara></flowRoot>    <flowRoot
       xml:space="preserve"
       id="flowRoot3866"
       style="font-size:14px;font-style:normal;font-variant:normal;font-weight:normal;font-stretch:normal;line-height:125%;letter-spacing:0px;word-spacing:0px;fill:#00ff00;fill-opacity:1;stroke:none;font-family:Tahoma;-inkscape-font-specification:Sans;text-anchor:middle;text-align:center"
       transform="translate(9.0507813,91.31034)"><flowRegion
         id="flowRegion3868"><rect
           id="rect3870"
           width="100"
           height="12.18966"
           x="-9.0507812"
           y="-3.5000002"
           style="text-align:center;text-anchor:middle;fill:#00ff00" /></flowRegion><flowPara
         id="flowPara3872"
         style="font-size:10px;font-weight:bold;-inkscape-font-specification:Tahoma Bold;text-anchor:middle;text-align:center">6</flowPara></flowRoot>    <flowRoot
       transform="translate(-31.44893,47.31034)"
       style="font-size:14px;font-style:normal;font-variant:normal;font-weight:normal;font-stretch:normal;line-height:125%;letter-spacing:0px;word-spacing:0px;fill:#00ff00;fill-opacity:1;stroke:none;font-family:Tahoma;-inkscape-font-specification:Sans"
       id="flowRoot3874"
       xml:space="preserve"><flowRegion
         id="flowRegion3876"><rect
           style="fill:#00ff00"
           y="-3.2500002"
           x="34.25"
           height="23.75"
           width="34.75"
           id="rect3878" /></flowRegion><flowPara
         style="font-size:10px;font-weight:bold;-inkscape-font-specification:Tahoma Bold"
         id="flowPara3880">9</flowPara></flowRoot>  </g>
  <g
     inkscape:label="Layer 1"
     inkscape:groupmode="layer"
     id="layer1"
     transform="translate(0,-355.42859)">
    <path
       style="fill:#000000;fill-opacity:1;fill-rule:nonzero;stroke:none;opacity:0.5"
       d="M 50 1 C 22.938047 1 1 22.938047 1 50 C 1 77.061953 22.938047 99 50 99 C 77.061953 99 99 77.061953 99 50 C 99 22.938047 77.061953 1 50 1 z M 52.8125 2.1875 C 53.675126 2.1875074 54.305659 2.3971426 54.75 2.78125 C 55.19433 3.165371 55.437494 3.7096413 55.4375 4.40625 C 55.437494 4.8359423 55.326817 5.2444705 55.125 5.65625 C 54.923172 6.0680374 54.593745 6.5279979 54.125 7 C 53.832027 7.2897159 53.557939 7.5237651 53.28125 7.75 C 53.004554 7.9762386 52.779945 8.1556004 52.65625 8.25 L 55.75 8.25 L 55.75 9.625 L 50.40625 9.625 L 50.40625 8.4375 C 50.858723 8.0794286 51.265298 7.7252623 51.625 7.40625 C 51.984698 7.0872421 52.28906 6.7864612 52.5625 6.5 C 52.917314 6.1256545 53.184241 5.7832069 53.34375 5.5 C 53.503251 5.2168013 53.593746 4.9557338 53.59375 4.65625 C 53.593746 4.3177136 53.483069 4.0556696 53.28125 3.875 C 53.079424 3.6943419 52.798825 3.593756 52.4375 3.59375 C 52.251951 3.593756 52.070636 3.6106831 51.90625 3.65625 C 51.74186 3.7018288 51.575519 3.7721413 51.40625 3.84375 C 51.240233 3.9186255 51.117186 3.9843806 51 4.0625 L 50.71875 4.25 L 50.59375 4.25 L 50.59375 2.65625 C 50.798827 2.5586008 51.095051 2.4462962 51.53125 2.34375 C 51.967446 2.2412183 52.408851 2.1875074 52.8125 2.1875 z M 45.96875 2.3125 L 47.5625 2.3125 L 47.5625 8.34375 L 49.0625 8.34375 L 49.0625 9.625 L 44.25 9.625 L 44.25 8.34375 L 45.78125 8.34375 L 45.78125 4.5 L 44.25 4.5 L 44.25 3.3125 C 44.474608 3.3125063 44.716144 3.3105532 44.9375 3.28125 C 45.158852 3.2519595 45.335284 3.1901106 45.46875 3.125 C 45.624998 3.0468816 45.726235 2.9443426 45.8125 2.8125 C 45.89876 2.680671 45.955727 2.5078196 45.96875 2.3125 z M 50 11 C 71.539105 11 89 28.460895 89 50 C 89 71.539105 71.539105 89 50 89 C 28.460895 89 11 71.539105 11 50 C 11 28.460895 28.460895 11 50 11 z M 5.875 46.1875 C 6.2981736 46.187507 6.6712201 46.256192 7 46.375 C 7.3287715 46.493822 7.6093702 46.662116 7.84375 46.90625 C 8.1171822 47.182949 8.3271429 47.563808 8.46875 48 C 8.6103457 48.436203 8.6874941 48.944015 8.6875 49.5625 C 8.6874941 50.180993 8.6119733 50.76693 8.46875 51.28125 C 8.3255153 51.795575 8.1152291 52.225913 7.8125 52.59375 C 7.4999953 52.9681 7.1201129 53.268555 6.65625 53.46875 C 6.1923794 53.668945 5.6113253 53.75 4.9375 53.75 C 4.7096335 53.75 4.4661442 53.748047 4.21875 53.71875 C 3.971353 53.689453 3.8001292 53.647786 3.71875 53.625 L 3.71875 52.1875 L 3.875 52.1875 C 3.9661447 52.233074 4.0823555 52.291668 4.25 52.34375 C 4.4176416 52.395835 4.6725242 52.437501 4.96875 52.4375 C 5.2063778 52.437501 5.4348932 52.407228 5.65625 52.34375 C 5.8776011 52.280275 6.0592415 52.16797 6.21875 52.03125 C 6.384762 51.888023 6.5143192 51.714846 6.625 51.5 C 6.7356731 51.285159 6.8046835 51.009768 6.84375 50.6875 C 6.5833295 50.850263 6.3479782 50.97624 6.125 51.0625 C 5.9020151 51.148765 5.6132784 51.187502 5.28125 51.1875 C 5.0305967 51.187502 4.7919902 51.160484 4.5625 51.09375 C 4.3330063 51.027021 4.1263007 50.921227 3.9375 50.78125 C 3.6868481 50.585941 3.4902337 50.33887 3.34375 50.03125 C 3.1972652 49.723637 3.1249997 49.332036 3.125 48.84375 C 3.1249997 48.466151 3.1839189 48.101894 3.3125 47.78125 C 3.4410801 47.460618 3.637369 47.175137 3.875 46.9375 C 4.1093737 46.703132 4.4082015 46.539721 4.75 46.40625 C 5.0917946 46.272794 5.4550755 46.187507 5.875 46.1875 z M 93.84375 46.1875 C 94.276689 46.187507 94.651363 46.237638 94.96875 46.3125 C 95.286128 46.387377 95.556636 46.481778 95.78125 46.625 C 96.028641 46.778002 96.188797 46.982754 96.3125 47.21875 C 96.436192 47.454759 96.499994 47.703782 96.5 48 C 96.499994 48.413417 96.395502 48.782882 96.15625 49.09375 C 95.916987 49.404627 95.60937 49.596358 95.21875 49.6875 L 95.21875 49.78125 C 95.391271 49.807295 95.554357 49.844405 95.71875 49.90625 C 95.883133 49.968103 96.031245 50.07878 96.1875 50.21875 C 96.333979 50.345706 96.466466 50.487308 96.5625 50.6875 C 96.658523 50.887698 96.687494 51.12956 96.6875 51.40625 C 96.687494 51.76107 96.63183 52.082033 96.5 52.375 C 96.368158 52.66797 96.191401 52.919923 95.9375 53.125 C 95.680334 53.330078 95.377925 53.484701 95.03125 53.59375 C 94.684566 53.702799 94.248043 53.75 93.75 53.75 C 93.183591 53.75 92.686522 53.719401 92.28125 53.625 C 91.875975 53.530599 91.566405 53.429688 91.3125 53.3125 L 91.3125 51.71875 L 91.46875 51.71875 C 91.735676 51.888023 92.046548 52.032554 92.40625 52.15625 C 92.765949 52.279949 93.110024 52.343751 93.40625 52.34375 C 93.582028 52.343751 93.762041 52.343426 93.96875 52.3125 C 94.175452 52.281577 94.360022 52.197918 94.5 52.09375 C 94.610673 52.012371 94.683264 51.931317 94.75 51.8125 C 94.816728 51.693687 94.874996 51.530601 94.875 51.3125 C 94.874996 51.097659 94.813147 50.928063 94.71875 50.8125 C 94.624345 50.696943 94.499996 50.614586 94.34375 50.5625 C 94.187497 50.507165 93.999346 50.475264 93.78125 50.46875 C 93.563148 50.462243 93.384763 50.437503 93.21875 50.4375 L 92.90625 50.4375 L 92.90625 49.15625 L 93.1875 49.15625 C 93.408852 49.156254 93.5957 49.144536 93.78125 49.125 C 93.966794 49.105473 94.151038 49.089848 94.28125 49.03125 C 94.411455 48.969406 94.489254 48.860682 94.5625 48.75 C 94.635738 48.639328 94.687496 48.501307 94.6875 48.3125 C 94.687496 48.166021 94.662106 48.061529 94.59375 47.96875 C 94.525387 47.875982 94.413408 47.802089 94.3125 47.75 C 94.195309 47.691412 94.062497 47.644537 93.90625 47.625 C 93.749997 47.605475 93.641924 47.593756 93.53125 47.59375 C 93.352211 47.593756 93.154295 47.613938 92.96875 47.65625 C 92.783201 47.698574 92.613279 47.747402 92.4375 47.8125 C 92.30078 47.864589 92.149738 47.948248 92 48.03125 C 91.850259 48.114263 91.727864 48.176438 91.65625 48.21875 L 91.5 48.21875 L 91.5 46.65625 C 91.75065 46.548835 92.106444 46.443041 92.53125 46.34375 C 92.956053 46.244474 93.401039 46.187507 93.84375 46.1875 z M 5.875 47.4375 C 5.7675752 47.437506 5.6650362 47.456061 5.5625 47.5 C 5.4599583 47.543951 5.3443985 47.611334 5.25 47.71875 C 5.1653622 47.813157 5.1210914 47.942714 5.0625 48.125 C 5.0039041 48.307297 4.9687478 48.531906 4.96875 48.75 C 4.9687478 48.98438 5.0022765 49.161137 5.0625 49.3125 C 5.122719 49.463871 5.1770809 49.596358 5.28125 49.6875 C 5.3854141 49.775394 5.5227837 49.839196 5.65625 49.875 C 5.7897106 49.910811 5.9309865 49.906254 6.09375 49.90625 C 6.2304653 49.906254 6.3863897 49.912439 6.53125 49.875 C 6.6761029 49.837569 6.7871054 49.789066 6.875 49.75 C 6.8749959 49.714197 6.8701131 49.660486 6.875 49.59375 C 6.8798787 49.527022 6.8749959 49.414718 6.875 49.28125 C 6.8749959 48.887375 6.8479777 48.568039 6.78125 48.3125 C 6.7145143 48.056972 6.6204389 47.861985 6.5 47.71875 C 6.415361 47.614589 6.3245407 47.545579 6.21875 47.5 C 6.1129524 47.454433 5.9986947 47.437506 5.875 47.4375 z M 51.03125 89.96875 C 51.268876 89.968757 51.479487 89.969083 51.71875 90 C 51.958003 90.030932 52.130854 90.042976 52.21875 90.0625 L 52.21875 91.5 L 52.09375 91.5 C 52.009109 91.457688 51.882807 91.428717 51.6875 91.375 C 51.492183 91.321295 51.250647 91.281256 51 91.28125 C 50.430335 91.281256 49.996742 91.419277 49.6875 91.71875 C 49.378253 92.018234 49.196612 92.471359 49.125 93.03125 C 49.362628 92.87826 49.597979 92.7474 49.84375 92.65625 C 50.089515 92.565109 50.378252 92.531255 50.6875 92.53125 C 50.947913 92.531255 51.176753 92.555018 51.40625 92.625 C 51.635737 92.694992 51.852209 92.804041 52.03125 92.9375 C 52.281896 93.129562 52.476882 93.375004 52.625 93.6875 C 52.773106 94.000003 52.843744 94.386722 52.84375 94.875 C 52.843744 95.639976 52.61002 96.288087 52.125 96.78125 C 51.639969 97.274414 50.97135 97.5 50.125 97.5 C 49.70182 97.5 49.300779 97.46582 48.96875 97.34375 C 48.636717 97.22168 48.356118 97.018881 48.125 96.78125 C 47.848306 96.501303 47.646484 96.16146 47.5 95.71875 C 47.353515 95.276044 47.28125 94.740237 47.28125 94.125 C 47.28125 93.486983 47.363281 92.901046 47.5 92.40625 C 47.636718 91.911464 47.847004 91.474615 48.15625 91.09375 C 48.452472 90.732428 48.833982 90.453457 49.3125 90.25 C 49.791013 90.046557 50.37695 89.968757 51.03125 89.96875 z M 49.875 93.78125 C 49.748044 93.781254 49.603838 93.811201 49.46875 93.84375 C 49.333656 93.876306 49.210935 93.919925 49.09375 93.96875 C 49.093748 94.001305 49.097003 94.050134 49.09375 94.125 C 49.090492 94.199873 49.093748 94.292321 49.09375 94.40625 C 49.093748 94.822919 49.145505 95.152346 49.21875 95.40625 C 49.29199 95.660158 49.35807 95.869793 49.46875 96 C 49.553383 96.104168 49.672198 96.173178 49.78125 96.21875 C 49.890296 96.264324 50.004554 96.281251 50.125 96.28125 C 50.222653 96.281251 50.323564 96.267579 50.4375 96.21875 C 50.551429 96.169923 50.640621 96.097658 50.71875 96 C 50.813147 95.882814 50.88704 95.732098 50.9375 95.59375 C 50.987952 95.455406 50.999996 95.2487 51 94.96875 C 50.999996 94.734378 50.99609 94.559248 50.9375 94.40625 C 50.878902 94.253258 50.794918 94.122399 50.6875 94.03125 C 50.580074 93.940108 50.449215 93.877933 50.3125 93.84375 C 50.175778 93.809574 50.027992 93.781254 49.875 93.78125 z "
       transform="translate(0,355.42859)"
       id="path3001" />
  </g>
</svg>
