<?xml version="1.0" encoding="UTF-8" standalone="no"?>
<!-- Created with Inkscape (http://www.inkscape.org/) -->
<svg
   xmlns:dc="http://purl.org/dc/elements/1.1/"
   xmlns:cc="http://creativecommons.org/ns#"
   xmlns:rdf="http://www.w3.org/1999/02/22-rdf-syntax-ns#"
   xmlns:svg="http://www.w3.org/2000/svg"
   xmlns="http://www.w3.org/2000/svg"
   xmlns:sodipodi="http://sodipodi.sourceforge.net/DTD/sodipodi-0.dtd"
   xmlns:inkscape="http://www.inkscape.org/namespaces/inkscape"
   width="800"
   height="800"
   id="svg2"
   sodipodi:version="0.32"
   inkscape:version="0.46"
   version="1.0"
   sodipodi:docname="hud.svg"
   inkscape:output_extension="org.inkscape.output.svg.inkscape"
   style="display:inline">
  <sodipodi:namedview
     id="base"
     pagecolor="#a7a7a7"
     bordercolor="#666666"
     borderopacity="1.0"
     gridtolerance="10000"
     guidetolerance="10"
     objecttolerance="10"
     inkscape:pageopacity="0"
     inkscape:pageshadow="2"
     inkscape:zoom="0.49497475"
     inkscape:cx="205.32055"
     inkscape:cy="357.55685"
     inkscape:document-units="px"
     inkscape:current-layer="layer3"
     showgrid="false"
     inkscape:showpageshadow="false"
     inkscape:window-width="1034"
     inkscape:window-height="720"
     inkscape:window-x="4"
     inkscape:window-y="22" />
  <defs
     id="defs4">
    <inkscape:perspective
       id="perspective10"
       inkscape:persp3d-origin="372.04724 : 350.78739 : 1"
       inkscape:vp_z="744.09448 : 526.18109 : 1"
       inkscape:vp_y="0 : 1000 : 0"
       inkscape:vp_x="0 : 526.18109 : 1"
       sodipodi:type="inkscape:persp3d" />
  </defs>
  <metadata
     id="metadata7">
    <rdf:RDF>
      <cc:Work
         rdf:about="">
        <dc:format>image/svg+xml</dc:format>
        <dc:type
           rdf:resource="http://purl.org/dc/dcmitype/StillImage" />
      </cc:Work>
    </rdf:RDF>
  </metadata>
  <g
     style="display:none"
     inkscape:label="Hide"
     id="layer2"
     inkscape:groupmode="layer">
    <path
       sodipodi:type="arc"
       style="opacity:1;fill:#ff0000;fill-opacity:1;stroke:none;stroke-width:5;stroke-miterlimit:4;stroke-dasharray:none;stroke-opacity:1;display:inline"
       id="path2427"
       sodipodi:cx="-500"
       sodipodi:cy="500"
       sodipodi:rx="1000"
       sodipodi:ry="1000"
       d="M 427.47843,126.12334 A 1000,1000 0 0 1 427.47844,873.87665 L -500,500 z"
       sodipodi:start="5.9"
       sodipodi:end="6.6663706"
       transform="translate(-120,-98)" />
    <path
       d="M 440,500 A 940,940 0 1 1 -1440,500 A 940,940 0 1 1 440,500 z"
       sodipodi:ry="940"
       sodipodi:rx="940"
       sodipodi:cy="500"
       sodipodi:cx="-500"
       id="path2417"
       style="opacity:1;fill:#2b0000;fill-opacity:1;stroke:none;stroke-width:5;stroke-miterlimit:4;stroke-dasharray:none;stroke-opacity:1;display:inline"
       sodipodi:type="arc"
       transform="translate(-120,-98)" />
  </g>
  <g
     inkscape:groupmode="layer"
     id="layer4"
     inkscape:label="BG"
     style="display:none">
    <rect
       style="opacity:1;fill:#b3b3b3;fill-opacity:1;stroke:none;stroke-width:5;stroke-miterlimit:4;stroke-dasharray:none;stroke-opacity:1"
       id="rect2821"
       width="794.27545"
       height="789.39807"
       x="2.8571429"
       y="5.7142859" />
  </g>
  <g
     inkscape:groupmode="layer"
     id="layer5"
     inkscape:label="combo_backup"
     style="display:none">
    <path
       sodipodi:type="arc"
       style="opacity:1;fill:#ff0000;fill-opacity:1;stroke:none;stroke-width:5;stroke-miterlimit:4;stroke-dasharray:none;stroke-opacity:1;display:inline"
       id="path2771"
       sodipodi:cx="-500"
       sodipodi:cy="500"
       sodipodi:rx="1200"
       sodipodi:ry="1200"
       d="M 680.61243,285.1645 A 1200,1200 0 0 1 696.16205,404.10236 L -500,500 z"
       sodipodi:start="6.1031853"
       sodipodi:end="6.2031853"
       transform="translate(-120,-98)" />
    <path
       sodipodi:end="6.3331853"
       sodipodi:start="6.2331853"
       d="M 698.50031,440.02499 A 1200,1200 0 0 1 698.50031,559.97499 L -500,500 z"
       sodipodi:ry="1200"
       sodipodi:rx="1200"
       sodipodi:cy="500"
       sodipodi:cx="-500"
       id="path2768"
       style="opacity:1;fill:#ff0000;fill-opacity:1;stroke:none;stroke-width:5;stroke-miterlimit:4;stroke-dasharray:none;stroke-opacity:1;display:inline"
       sodipodi:type="arc"
       transform="translate(-120,-98)" />
    <path
       sodipodi:end="0.18"
       sodipodi:start="0.08"
       d="M 696.16205,595.89763 A 1200,1200 0 0 1 680.61243,714.83549 L -500,500 z"
       sodipodi:ry="1200"
       sodipodi:rx="1200"
       sodipodi:cy="500"
       sodipodi:cx="-500"
       id="path2791"
       style="opacity:1;fill:#ff0000;fill-opacity:1;stroke:none;stroke-width:5;stroke-miterlimit:4;stroke-dasharray:none;stroke-opacity:1;display:inline"
       sodipodi:type="arc"
       transform="translate(-120,-98)" />
    <path
       sodipodi:type="arc"
       style="opacity:1;fill:#ff0000;fill-opacity:1;stroke:none;stroke-width:5;stroke-miterlimit:4;stroke-dasharray:none;stroke-opacity:1;display:inline"
       id="path2793"
       sodipodi:cx="-500"
       sodipodi:cy="500"
       sodipodi:rx="1200"
       sodipodi:ry="1200"
       d="M 673.6371,750.15188 A 1200,1200 0 0 1 642.80028,866.07036 L -500,500 z"
       sodipodi:start="0.21"
       sodipodi:end="0.31"
       transform="translate(-120,-98)" />
    <path
       sodipodi:end="6.0731857"
       sodipodi:start="5.9731853"
       d="M 642.80028,133.92963 A 1200,1200 0 0 1 673.6372,249.84858 L -500,500 z"
       sodipodi:ry="1200"
       sodipodi:rx="1200"
       sodipodi:cy="500"
       sodipodi:cx="-500"
       id="path2773"
       style="opacity:1;fill:#ff0000;fill-opacity:1;stroke:none;stroke-width:5;stroke-miterlimit:4;stroke-dasharray:none;stroke-opacity:1;display:inline"
       sodipodi:type="arc"
       transform="translate(-120,-98)" />
  </g>
  <g
     style="display:inline"
     id="layer1"
     inkscape:groupmode="layer"
     inkscape:label="Layer 1">
    <path
       id="path2423"
       d="M 307.46875,28.125 L 251.96875,50.5 C 295.82984,159.10619 320,277.73982 320,402 C 320,526.26018 295.82984,644.89381 251.96875,753.5 L 307.46875,775.875 C 314.88998,757.4651 321.76646,739.08136 328.09375,720.6875 C 361.76213,620.58153 380,513.40627 380,402 C 380,290.59373 361.76213,183.41847 328.09375,83.3125 C 321.76646,64.91864 314.88998,46.5349 307.46875,28.125 z"
       style="opacity:0.6;fill:#80b3ff;fill-opacity:1;stroke:none;stroke-width:5;stroke-miterlimit:4;stroke-dasharray:none;stroke-opacity:1" />
    <path
       style="opacity:0.6;fill:#216778;fill-opacity:1;stroke:none;stroke-width:5;stroke-miterlimit:4;stroke-dasharray:none;stroke-opacity:1"
       d="M 307.4375,24.9375 C 307.03985,24.94787 306.64767,25.03267 306.28125,25.1875 L 250.78125,47.5625 C 249.16535,48.22487 248.38458,50.06525 249.03125,51.6875 C 292.74297,159.92383 316.8125,278.15265 316.8125,402 C 316.8125,525.84735 292.74297,644.07617 249.03125,752.3125 C 248.38458,753.93475 249.16535,755.77513 250.78125,756.4375 L 306.28125,778.8125 C 307.9035,779.45917 309.74388,778.6784 310.40625,777.0625 C 317.84729,758.60346 324.74791,740.16653 331.09375,721.71875 C 331.10424,721.70841 331.11466,721.69799 331.125,721.6875 C 364.90151,621.26003 383.1875,513.75372 383.1875,402 C 383.1875,290.24628 364.90151,182.73997 331.125,82.3125 C 331.11466,82.30201 331.10424,82.29159 331.09375,82.28125 C 324.74791,63.83347 317.84729,45.39654 310.40625,26.9375 C 309.92058,25.725 308.74364,24.93212 307.4375,24.9375 z M 307.46875,28.125 C 314.88998,46.5349 321.76646,64.91864 328.09375,83.3125 C 361.76213,183.41847 380,290.59373 380,402 C 380,513.40627 361.76213,620.58153 328.09375,720.6875 C 321.76646,739.08136 314.88998,757.4651 307.46875,775.875 L 251.96875,753.5 C 295.82984,644.89381 320,526.26018 320,402 C 320,277.73982 295.82984,159.10619 251.96875,50.5 L 307.46875,28.125 z"
       id="path2877" />
    <path
       style="opacity:0.6;fill:#d40000;fill-opacity:1;stroke:none;stroke-width:5;stroke-miterlimit:4;stroke-dasharray:none;stroke-opacity:1"
       d="M 242.6875,54.21875 L 224.15625,61.71875 C 266.61323,166.85423 290,281.71196 290,402 C 290,522.28804 266.61323,637.14577 224.15625,742.28125 L 242.6875,749.78125 C 286.08171,642.33074 310,524.93786 310,402 C 310,279.06214 286.08171,161.66926 242.6875,54.21875 z"
       id="path2484" />
    <path
       style="opacity:0.6;fill:#800000;fill-opacity:1;stroke:none;stroke-width:5;stroke-miterlimit:4;stroke-dasharray:none;stroke-opacity:1"
       d="M 242.65625,51.71875 C 242.34512,51.72425 242.03776,51.78784 241.75,51.90625 L 223.21875,59.40625 C 221.94249,59.92492 221.32726,61.3791 221.84375,62.65625 C 264.1835,167.50142 287.5,282.03563 287.5,402 C 287.5,521.96437 264.1835,636.49858 221.84375,741.34375 C 221.32726,742.6209 221.94249,744.07508 223.21875,744.59375 L 241.75,752.09375 C 243.02715,752.61024 244.48133,751.99501 245,750.71875 C 288.51139,642.97808 312.5,525.26176 312.5,402 C 312.5,278.73824 288.51139,161.02192 245,53.28125 C 244.61503,52.32749 243.68471,51.70728 242.65625,51.71875 z M 242.6875,54.21875 C 286.08171,161.66926 310,279.06214 310,402 C 310,524.93786 286.08171,642.33074 242.6875,749.78125 L 224.15625,742.28125 C 266.61323,637.14577 290,522.28804 290,402 C 290,281.71196 266.61323,166.85423 224.15625,61.71875 L 242.6875,54.21875 z"
       id="path2888" />
  </g>
  <g
     inkscape:groupmode="layer"
     id="layer3"
     inkscape:label="combopts"
     style="display:inline">
    <path
       style="opacity:1;fill:#225500;fill-opacity:1;stroke:none;stroke-width:5;stroke-miterlimit:4;stroke-dasharray:none;stroke-opacity:1;display:inline"
       d="M 346.71875,89.78125 C 346.48492,89.79105 346.25356,89.83311 346.03125,89.90625 L 322.21875,97.53125 C 320.89388,97.96747 320.16851,99.39031 320.59375,100.71875 C 330.57834,131.88236 339.02119,163.70214 345.90625,196.125 C 346.05046,196.78436 346.46255,197.35525 347.03125,197.71875 C 347.59996,198.08224 348.27853,198.20849 348.9375,198.0625 L 373.375,192.84375 C 374.74604,192.55744 375.6267,191.21548 375.34375,189.84375 C 368.2495,156.43779 359.50681,123.64218 349.21875,91.53125 C 348.86763,90.45663 347.84864,89.74334 346.71875,89.78125 z M 346.8125,92.3125 C 357.07441,124.34181 365.76714,157.0521 372.84375,190.375 L 348.40625,195.59375 C 341.5034,163.08713 333.01053,131.18206 323,99.9375 L 346.8125,92.3125 z M 378.4375,217.71875 C 378.37463,217.72682 378.31209,217.73725 378.25,217.75 L 353.6875,222.21875 C 352.32026,222.47649 351.41471,223.78606 351.65625,225.15625 C 357.46943,257.2709 361.72093,289.94879 364.34375,323.0625 C 364.39383,323.73947 364.70211,324.37218 365.21875,324.8125 C 365.73539,325.25283 366.4174,325.4641 367.09375,325.40625 L 392,323.40625 C 393.38485,323.28534 394.41534,322.07381 394.3125,320.6875 C 391.60955,286.56021 387.21056,252.91172 381.21875,219.8125 C 380.9907,218.48923 379.77223,217.57195 378.4375,217.71875 z M 378.71875,220.25 C 384.69564,253.26678 389.08506,286.83301 391.78125,320.875 L 366.875,322.875 C 364.24551,289.67709 359.98457,256.91704 354.15625,224.71875 L 378.71875,220.25 z M 393.625,348.75 L 368.65625,350 C 367.25983,350.07231 366.18438,351.2595 366.25,352.65625 C 367.05618,369.0081 367.46875,385.4493 367.46875,402 C 367.46875,418.5507 367.05618,434.9919 366.25,451.34375 C 366.18438,452.7405 367.25983,453.92769 368.65625,454 L 393.625,455.25 C 395.02175,455.31562 396.20894,454.24017 396.28125,452.84375 C 397.11116,436.0029 397.53125,419.04576 397.53125,402 C 397.53125,384.95424 397.11116,367.9971 396.28125,351.15625 C 396.20894,349.75983 395.02175,348.68438 393.625,348.75 z M 393.75,351.28125 C 394.57787,368.08077 395,384.99628 395,402 C 395,419.00372 394.57787,435.91923 393.75,452.71875 L 368.78125,451.46875 C 369.58947,435.07551 370,418.5926 370,402 C 370,385.4074 369.58947,368.92449 368.78125,352.53125 L 393.75,351.28125 z M 366.5625,478.59375 C 365.35792,478.74452 364.42834,479.72647 364.34375,480.9375 C 361.72093,514.05121 357.46943,546.7291 351.65625,578.84375 C 351.41471,580.21394 352.32026,581.52351 353.6875,581.78125 L 378.25,586.25 C 378.9177,586.37454 379.59844,586.23128 380.15625,585.84375 C 380.71405,585.45622 381.10249,584.85669 381.21875,584.1875 C 387.21056,551.08828 391.60955,517.43979 394.3125,483.3125 C 394.41534,481.92619 393.38485,480.71466 392,480.59375 L 367.09375,478.59375 C 366.91715,478.57518 366.7391,478.57518 366.5625,478.59375 z M 366.875,481.125 L 391.78125,483.125 C 389.08506,517.16699 384.69564,550.73322 378.71875,583.75 L 354.15625,579.28125 C 359.98457,547.08296 364.24551,514.32291 366.875,481.125 z M 348.1875,605.875 C 347.06879,605.96458 346.14142,606.77762 345.90625,607.875 C 339.02119,640.29786 330.57834,672.11764 320.59375,703.28125 C 320.16851,704.60969 320.89388,706.03253 322.21875,706.46875 L 346.03125,714.09375 C 347.35969,714.51899 348.78253,713.79362 349.21875,712.46875 C 359.50681,680.35782 368.2495,647.56221 375.34375,614.15625 C 375.6267,612.78452 374.74604,611.44256 373.375,611.15625 L 348.9375,605.9375 C 348.69199,605.87955 348.43922,605.85848 348.1875,605.875 z M 348.40625,608.40625 L 372.84375,613.625 C 365.76714,646.9479 357.07441,679.65819 346.8125,711.6875 L 323,704.0625 C 333.01053,672.81794 341.5034,640.91287 348.40625,608.40625 z"
       id="path2870" />
    <path
       sodipodi:type="inkscape:offset"
       inkscape:radius="0"
       inkscape:original="M 466.8125 190.3125 L 443 197.9375 C 453.01053 229.18206 461.5034 261.08713 468.40625 293.59375 L 492.84375 288.375 C 485.76714 255.0521 477.07441 222.34181 466.8125 190.3125 z M 498.71875 318.25 L 474.15625 322.71875 C 479.98457 354.91704 484.24551 387.67709 486.875 420.875 L 511.78125 418.875 C 509.08506 384.83301 504.69564 351.26678 498.71875 318.25 z M 513.75 449.28125 L 488.78125 450.53125 C 489.58947 466.92449 490 483.4074 490 500 C 490 516.5926 489.58947 533.07551 488.78125 549.46875 L 513.75 550.71875 C 514.57787 533.91923 515 517.00372 515 500 C 515 482.99628 514.57787 466.08077 513.75 449.28125 z M 486.875 579.125 C 484.24551 612.32291 479.98457 645.08296 474.15625 677.28125 L 498.71875 681.75 C 504.69564 648.73322 509.08506 615.16699 511.78125 581.125 L 486.875 579.125 z M 468.40625 706.40625 C 461.5034 738.91287 453.01053 770.81794 443 802.0625 L 466.8125 809.6875 C 477.07441 777.65819 485.76714 744.9479 492.84375 711.625 L 468.40625 706.40625 z "
       style="opacity:0.5;fill:#44aa00;fill-opacity:1;stroke:none;stroke-width:5;stroke-miterlimit:4;stroke-dasharray:none;stroke-opacity:1;display:inline"
       id="path2864"
       d="M 466.8125,190.3125 L 443,197.9375 C 453.01053,229.18206 461.5034,261.08713 468.40625,293.59375 L 492.84375,288.375 C 485.76714,255.0521 477.07441,222.34181 466.8125,190.3125 z M 498.71875,318.25 L 474.15625,322.71875 C 479.98457,354.91704 484.24551,387.67709 486.875,420.875 L 511.78125,418.875 C 509.08506,384.83301 504.69564,351.26678 498.71875,318.25 z M 513.75,449.28125 L 488.78125,450.53125 C 489.58947,466.92449 490,483.4074 490,500 C 490,516.5926 489.58947,533.07551 488.78125,549.46875 L 513.75,550.71875 C 514.57787,533.91923 515,517.00372 515,500 C 515,482.99628 514.57787,466.08077 513.75,449.28125 z M 486.875,579.125 C 484.24551,612.32291 479.98457,645.08296 474.15625,677.28125 L 498.71875,681.75 C 504.69564,648.73322 509.08506,615.16699 511.78125,581.125 L 486.875,579.125 z M 468.40625,706.40625 C 461.5034,738.91287 453.01053,770.81794 443,802.0625 L 466.8125,809.6875 C 477.07441,777.65819 485.76714,744.9479 492.84375,711.625 L 468.40625,706.40625 z"
       transform="translate(-120,-98)" />
    <path
       style="opacity:1;fill:#225500;fill-opacity:1;stroke:none;stroke-width:5;stroke-miterlimit:4;stroke-dasharray:none;stroke-opacity:1;display:inline"
       d="M 384.84375,78.21875 C 384.67359,78.22705 384.50536,78.25859 384.34375,78.3125 L 374.8125,81.375 C 373.82873,81.68564 373.28307,82.73499 373.59375,83.71875 C 384.14126,116.63933 393.10171,150.24901 400.375,184.5 C 400.59038,185.49537 401.56338,186.13477 402.5625,185.9375 L 412.375,183.84375 C 413.37037,183.62837 414.00977,182.65537 413.8125,181.65625 C 406.44391,146.95926 397.37234,112.88049 386.6875,79.53125 C 386.43808,78.72885 385.68359,78.19175 384.84375,78.21875 z M 384.90625,80.09375 C 395.5722,113.38404 404.64462,147.39648 412,182.03125 L 402.1875,184.125 C 394.90117,149.81259 385.94163,116.1365 375.375,83.15625 L 384.90625,80.09375 z M 365.8125,84.34375 C 365.64234,84.35205 365.47411,84.38359 365.3125,84.4375 L 355.78125,87.46875 C 354.79748,87.77939 354.25182,88.82874 354.5625,89.8125 C 364.9062,122.09642 373.67894,155.06655 380.8125,188.65625 C 381.02788,189.65162 382.00088,190.29102 383,190.09375 L 392.8125,188 C 393.80787,187.78462 394.44727,186.81162 394.25,185.8125 C 387.02273,151.7843 378.13492,118.36364 367.65625,85.65625 C 367.40683,84.85385 366.65234,84.31675 365.8125,84.34375 z M 365.875,86.21875 C 376.3347,118.86694 385.22338,152.22122 392.4375,186.1875 L 382.625,188.28125 C 375.47853,154.63074 366.70676,121.5942 356.34375,89.25 L 365.875,86.21875 z M 418.0625,211.21875 C 417.95764,211.22038 417.8531,211.23083 417.75,211.25 L 407.90625,213.03125 C 407.41628,213.12053 406.96916,213.40175 406.6875,213.8125 C 406.40587,214.22324 406.31297,214.72952 406.40625,215.21875 C 412.54815,249.14785 417.04165,283.64193 419.8125,318.625 C 419.8504,319.12369 420.08696,319.5832 420.46875,319.90625 C 420.85052,320.22929 421.34567,320.38892 421.84375,320.34375 L 431.8125,319.5625 C 432.31119,319.5246 432.7707,319.28804 433.09375,318.90625 C 433.41679,318.52445 433.57642,318.02933 433.53125,317.53125 C 430.72443,282.09154 426.15928,247.12335 419.9375,212.75 C 419.77257,211.84885 418.97844,211.20031 418.0625,211.21875 z M 418.09375,213.09375 C 424.30447,247.40597 428.85436,282.31005 431.65625,317.6875 L 421.6875,318.46875 C 418.91171,283.42332 414.40294,248.86508 408.25,214.875 L 418.09375,213.09375 z M 398.375,214.8125 C 398.27014,214.81413 398.1656,214.82458 398.0625,214.84375 L 388.21875,216.625 C 387.72878,216.71428 387.28166,216.9955 387,217.40625 C 386.71834,217.81699 386.62547,218.32327 386.71875,218.8125 C 392.74014,252.07905 397.15762,285.91986 399.875,320.21875 C 399.9129,320.71744 400.14946,321.17695 400.53125,321.5 C 400.91302,321.82304 401.40817,321.98267 401.90625,321.9375 L 411.875,321.15625 C 412.37369,321.11835 412.8332,320.88179 413.15625,320.5 C 413.47929,320.1182 413.63892,319.62308 413.59375,319.125 C 410.83986,284.35247 406.35476,250.06928 400.25,216.34375 C 400.08507,215.4426 399.29094,214.79406 398.375,214.8125 z M 398.40625,216.6875 C 404.50001,250.35226 408.96981,284.57126 411.71875,319.28125 L 401.75,320.0625 C 399.02765,285.70091 394.59487,251.79596 388.5625,218.46875 L 398.40625,216.6875 z M 433.59375,347.40625 L 423.59375,347.90625 C 423.09558,347.92863 422.61582,348.16146 422.28125,348.53125 C 421.94666,348.90104 421.78508,349.37708 421.8125,349.875 C 422.66383,367.14649 423.125,384.5223 423.125,402 C 423.125,419.4777 422.66383,436.85351 421.8125,454.125 C 421.78508,454.62292 421.94668,455.09896 422.28125,455.46875 C 422.6158,455.83857 423.09558,456.07137 423.59375,456.09375 L 433.59375,456.59375 C 434.09167,456.62117 434.56771,456.45957 434.9375,456.125 C 435.30732,455.79045 435.54012,455.31067 435.5625,454.8125 C 436.42531,437.31274 436.875,419.71454 436.875,402 C 436.875,384.28546 436.42531,366.68726 435.5625,349.1875 C 435.54012,348.68933 435.30729,348.20957 434.9375,347.875 C 434.56774,347.54044 434.09167,347.37883 433.59375,347.40625 z M 413.625,348.40625 L 403.625,348.90625 C 403.12683,348.92863 402.64707,349.16146 402.3125,349.53125 C 401.97791,349.90104 401.81633,350.37708 401.84375,350.875 C 402.67882,367.8158 403.125,384.85609 403.125,402 C 403.125,419.14391 402.67882,436.1842 401.84375,453.125 C 401.81633,453.62292 401.97793,454.09896 402.3125,454.46875 C 402.64705,454.83857 403.12683,455.07137 403.625,455.09375 L 413.625,455.59375 C 414.12292,455.62117 414.59896,455.45957 414.96875,455.125 C 415.33857,454.79045 415.57137,454.31067 415.59375,453.8125 C 416.43933,436.65278 416.875,419.36941 416.875,402 C 416.875,384.63059 416.43933,367.34722 415.59375,350.1875 C 415.57137,349.68933 415.33854,349.20957 414.96875,348.875 C 414.59899,348.54044 414.12292,348.37883 413.625,348.40625 z M 433.6875,349.28125 C 434.54886,366.75154 435,384.31723 435,402 C 435,419.68277 434.54886,437.24846 433.6875,454.71875 L 423.6875,454.21875 C 424.54024,436.9187 425,419.51039 425,402 C 425,384.48961 424.54024,367.0813 423.6875,349.78125 L 433.6875,349.28125 z M 413.71875,350.28125 C 414.56286,367.41106 415,384.66198 415,402 C 415,419.33802 414.56286,436.58894 413.71875,453.71875 L 403.71875,453.21875 C 404.55525,436.24894 405,419.17615 405,402 C 405,384.82385 404.55525,367.75106 403.71875,350.78125 L 413.71875,350.28125 z M 401.71875,482.0625 C 400.75198,482.07193 399.95216,482.81751 399.875,483.78125 C 397.15762,518.08014 392.74014,551.92095 386.71875,585.1875 C 386.62547,585.67673 386.71834,586.183 387,586.59375 C 387.28165,587.00452 387.72878,587.28572 388.21875,587.375 L 398.0625,589.15625 C 398.55173,589.24953 399.058,589.15666 399.46875,588.875 C 399.87952,588.59332 400.16072,588.14622 400.25,587.65625 C 406.35476,553.93072 410.83986,519.64753 413.59375,484.875 C 413.63892,484.37692 413.4793,483.88179 413.15625,483.5 C 412.83318,483.11818 412.37369,482.88165 411.875,482.84375 L 401.90625,482.0625 C 401.84379,482.05936 401.78121,482.05936 401.71875,482.0625 z M 421.65625,483.65625 C 420.68948,483.66568 419.88966,484.41126 419.8125,485.375 C 417.04165,520.35807 412.54815,554.85215 406.40625,588.78125 C 406.31297,589.27048 406.40584,589.77675 406.6875,590.1875 C 406.96918,590.59827 407.41628,590.87947 407.90625,590.96875 L 417.75,592.75 C 418.23923,592.84328 418.7455,592.75041 419.15625,592.46875 C 419.56702,592.18707 419.84822,591.73997 419.9375,591.25 C 426.15928,556.87665 430.72443,521.90846 433.53125,486.46875 C 433.57642,485.97067 433.4168,485.47554 433.09375,485.09375 C 432.77068,484.71193 432.31119,484.4754 431.8125,484.4375 L 421.84375,483.65625 C 421.78129,483.65311 421.71871,483.65311 421.65625,483.65625 z M 401.75,483.9375 L 411.71875,484.71875 C 408.96981,519.42874 404.50001,553.64774 398.40625,587.3125 L 388.5625,585.53125 C 394.59487,552.20404 399.02765,518.29909 401.75,483.9375 z M 421.6875,485.53125 L 431.65625,486.3125 C 428.85436,521.68995 424.30447,556.59403 418.09375,590.90625 L 408.25,589.125 C 414.40294,555.13492 418.91171,520.57668 421.6875,485.53125 z M 382.46875,613.84375 C 381.64549,613.922 380.97167,614.53225 380.8125,615.34375 C 373.67894,648.93345 364.9062,681.90358 354.5625,714.1875 C 354.25182,715.17126 354.79748,716.22061 355.78125,716.53125 L 365.3125,719.5625 C 366.29626,719.87318 367.34561,719.32752 367.65625,718.34375 C 378.13492,685.63636 387.02273,652.2157 394.25,618.1875 C 394.44727,617.18838 393.80787,616.21538 392.8125,616 L 383,613.90625 C 382.82683,613.86004 382.64791,613.83899 382.46875,613.84375 z M 382.625,615.71875 L 392.4375,617.8125 C 385.22338,651.77878 376.3347,685.13306 365.875,717.78125 L 356.34375,714.75 C 366.70676,682.4058 375.47853,649.36926 382.625,615.71875 z M 402.03125,618 C 401.20799,618.07825 400.53417,618.6885 400.375,619.5 C 393.10171,653.75099 384.14126,687.36067 373.59375,720.28125 C 373.28307,721.26501 373.82873,722.31436 374.8125,722.625 L 384.34375,725.6875 C 385.32751,725.99818 386.37686,725.45252 386.6875,724.46875 C 397.37234,691.11951 406.44391,657.04074 413.8125,622.34375 C 414.00977,621.34463 413.37037,620.37163 412.375,620.15625 L 402.5625,618.0625 C 402.38933,618.01629 402.21041,617.99524 402.03125,618 z M 402.1875,619.875 L 412,621.96875 C 404.64462,656.60352 395.5722,690.61596 384.90625,723.90625 L 375.375,720.84375 C 385.94163,687.8635 394.90117,654.18741 402.1875,619.875 z"
       id="path3709" />
    <path
       style="opacity:0.6;fill:#88aa00;fill-opacity:1;stroke:none;stroke-width:5;stroke-miterlimit:4;stroke-dasharray:none;stroke-opacity:1;display:inline"
       d="M 384.90625,80.09375 L 375.375,83.15625 C 385.94163,116.1365 394.90117,149.81259 402.1875,184.125 L 412,182.03125 C 404.64462,147.39648 395.5722,113.38404 384.90625,80.09375 z M 365.875,86.21875 L 356.34375,89.25 C 366.70676,121.5942 375.47853,154.63074 382.625,188.28125 L 392.4375,186.1875 C 385.22338,152.22122 376.3347,118.86694 365.875,86.21875 z M 418.09375,213.09375 L 408.25,214.875 C 414.40294,248.86508 418.91171,283.42332 421.6875,318.46875 L 431.65625,317.6875 C 428.85436,282.31005 424.30447,247.40597 418.09375,213.09375 z M 398.40625,216.6875 L 388.5625,218.46875 C 394.59487,251.79596 399.02765,285.70091 401.75,320.0625 L 411.71875,319.28125 C 408.96981,284.57126 404.50001,250.35226 398.40625,216.6875 z M 433.6875,349.28125 L 423.6875,349.78125 C 424.54024,367.0813 425,384.48961 425,402 C 425,419.51039 424.54024,436.9187 423.6875,454.21875 L 433.6875,454.71875 C 434.54886,437.24846 435,419.68277 435,402 C 435,384.31723 434.54886,366.75154 433.6875,349.28125 z M 413.71875,350.28125 L 403.71875,350.78125 C 404.55525,367.75106 405,384.82385 405,402 C 405,419.17615 404.55525,436.24894 403.71875,453.21875 L 413.71875,453.71875 C 414.56286,436.58894 415,419.33802 415,402 C 415,384.66198 414.56286,367.41106 413.71875,350.28125 z M 401.75,483.9375 C 399.02765,518.29909 394.59487,552.20404 388.5625,585.53125 L 398.40625,587.3125 C 404.50001,553.64774 408.96981,519.42874 411.71875,484.71875 L 401.75,483.9375 z M 421.6875,485.53125 C 418.91171,520.57668 414.40294,555.13492 408.25,589.125 L 418.09375,590.90625 C 424.30447,556.59403 428.85436,521.68995 431.65625,486.3125 L 421.6875,485.53125 z M 382.625,615.71875 C 375.47853,649.36926 366.70676,682.4058 356.34375,714.75 L 365.875,717.78125 C 376.3347,685.13306 385.22338,651.77878 392.4375,617.8125 L 382.625,615.71875 z M 402.1875,619.875 C 394.90117,654.18741 385.94163,687.8635 375.375,720.84375 L 384.90625,723.90625 C 395.5722,690.61596 404.64462,656.60352 412,621.96875 L 402.1875,619.875 z"
       id="path2915" />
  </g>
</svg>
