<?xml version="1.0" encoding="UTF-8" standalone="no"?>
<!-- Created with Inkscape (http://www.inkscape.org/) -->

<svg
   width="1200"
   height="800"
   id="svg2"
   sodipodi:version="0.32"
   inkscape:version="1.2 (dc2aedaf03, 2022-05-15)"
   version="1.0"
   sodipodi:docname="MainBar.svg"
   inkscape:output_extension="org.inkscape.output.svg.inkscape"
   style="display:inline"
   xmlns:inkscape="http://www.inkscape.org/namespaces/inkscape"
   xmlns:sodipodi="http://sodipodi.sourceforge.net/DTD/sodipodi-0.dtd"
   xmlns:xlink="http://www.w3.org/1999/xlink"
   xmlns="http://www.w3.org/2000/svg"
   xmlns:svg="http://www.w3.org/2000/svg"
   xmlns:rdf="http://www.w3.org/1999/02/22-rdf-syntax-ns#"
   xmlns:cc="http://creativecommons.org/ns#"
   xmlns:dc="http://purl.org/dc/elements/1.1/">
  <sodipodi:namedview
     id="base"
     pagecolor="#a73c32"
     bordercolor="#666666"
     borderopacity="1"
     gridtolerance="10000"
     guidetolerance="10"
     objecttolerance="10"
     inkscape:pageopacity="0"
     inkscape:pageshadow="2"
     inkscape:zoom="0.505"
     inkscape:cx="428.71287"
     inkscape:cy="332.67327"
     inkscape:document-units="px"
     inkscape:current-layer="layer6"
     showgrid="false"
     inkscape:showpageshadow="false"
     inkscape:window-width="2498"
     inkscape:window-height="1417"
     inkscape:window-x="1912"
     inkscape:window-y="-8"
     inkscape:window-maximized="1"
     inkscape:snap-bbox="false"
     inkscape:snap-global="false"
     inkscape:bbox-nodes="false"
     showguides="true"
     inkscape:guide-bbox="true"
     inkscape:snap-bbox-edge-midpoints="true"
     inkscape:bbox-paths="false"
     inkscape:object-nodes="true"
     inkscape:pagecheckerboard="0"
     inkscape:deskcolor="#a7a7a7" />
  <defs
     id="defs4">
    <linearGradient
       id="linearGradient5094">
      <stop
         id="stop5096"
         offset="0"
         style="stop-color:#ffffff;stop-opacity:1;" />
      <stop
         style="stop-color:#ffffff;stop-opacity:0.28491619;"
         offset="0.78933334"
         id="stop5098" />
      <stop
         id="stop5100"
         offset="1"
         style="stop-color:#ffffff;stop-opacity:0;" />
    </linearGradient>
    <linearGradient
       id="linearGradient4998">
      <stop
         style="stop-color:#ffffff;stop-opacity:0;"
         offset="0"
         id="stop5000" />
      <stop
         id="stop5008"
         offset="0.78933334"
         style="stop-color:#ffffff;stop-opacity:0.28491619;" />
      <stop
         style="stop-color:#ffffff;stop-opacity:0.6201117;"
         offset="0.89552593"
         id="stop5010" />
      <stop
         id="stop5012"
         offset="0.95999998"
         style="stop-color:#ffffff;stop-opacity:1;" />
      <stop
         style="stop-color:#ffffff;stop-opacity:0;"
         offset="1"
         id="stop5002" />
    </linearGradient>
    <linearGradient
       id="linearGradient4901">
      <stop
         style="stop-color:#ffffff;stop-opacity:0.27450982;"
         offset="0"
         id="stop4903" />
      <stop
         style="stop-color:#ffffff;stop-opacity:0.07843138;"
         offset="1"
         id="stop4905" />
    </linearGradient>
    <linearGradient
       id="linearGradient3618">
      <stop
         style="stop-color:#ffffff;stop-opacity:1;"
         offset="0"
         id="stop3620" />
      <stop
         id="stop3626"
         offset="0.5777778"
         style="stop-color:#ffffff;stop-opacity:0;" />
      <stop
         style="stop-color:#ffffff;stop-opacity:0;"
         offset="1"
         id="stop3622" />
    </linearGradient>
    <linearGradient
       id="linearGradient3609">
      <stop
         style="stop-color:#ffffff;stop-opacity:0.41666666;"
         offset="0"
         id="stop3611" />
      <stop
         style="stop-color:#ffffff;stop-opacity:1;"
         offset="1"
         id="stop3613" />
    </linearGradient>
    <inkscape:perspective
       id="perspective10"
       inkscape:persp3d-origin="372.04724 : 350.78739 : 1"
       inkscape:vp_z="744.09448 : 526.18109 : 1"
       inkscape:vp_y="0 : 1000 : 0"
       inkscape:vp_x="0 : 526.18109 : 1"
       sodipodi:type="inkscape:persp3d" />
    <linearGradient
       inkscape:collect="always"
       xlink:href="#linearGradient3618"
       id="linearGradient3624"
       x1="1175.2959"
       y1="813"
       x2="1175.2959"
       y2="-13"
       gradientUnits="userSpaceOnUse" />
    <inkscape:perspective
       id="perspective2885"
       inkscape:persp3d-origin="0.5 : 0.33333333 : 1"
       inkscape:vp_z="1 : 0.5 : 1"
       inkscape:vp_y="0 : 1000 : 0"
       inkscape:vp_x="0 : 0.5 : 1"
       sodipodi:type="inkscape:persp3d" />
    <filter
       inkscape:collect="always"
       id="filter3666"
       color-interpolation-filters="sRGB"
       x="-0.10204325"
       y="-0.018700493"
       width="1.1976642"
       height="1.037401">
      <feGaussianBlur
         inkscape:collect="always"
         stdDeviation="4.4439911"
         id="feGaussianBlur3668" />
    </filter>
    <linearGradient
       inkscape:collect="always"
       xlink:href="#linearGradient4901"
       id="linearGradient4907"
       x1="1123.1725"
       y1="40.75"
       x2="1123.1725"
       y2="759.28125"
       gradientUnits="userSpaceOnUse" />
    <linearGradient
       inkscape:collect="always"
       xlink:href="#linearGradient4901"
       id="linearGradient4915"
       x1="1122.8569"
       y1="38.03125"
       x2="1122.8569"
       y2="762"
       gradientUnits="userSpaceOnUse" />
    <linearGradient
       inkscape:collect="always"
       xlink:href="#linearGradient4901"
       id="linearGradient4923"
       x1="1122.5432"
       y1="35.3125"
       x2="1122.5432"
       y2="764.6875"
       gradientUnits="userSpaceOnUse" />
    <linearGradient
       inkscape:collect="always"
       xlink:href="#linearGradient4901"
       id="linearGradient4931"
       x1="1122.1995"
       y1="32.59375"
       x2="1122.1995"
       y2="767.40625"
       gradientUnits="userSpaceOnUse" />
    <linearGradient
       inkscape:collect="always"
       xlink:href="#linearGradient4901"
       id="linearGradient4939"
       x1="1121.5226"
       y1="27.15625"
       x2="1121.5226"
       y2="772.84375"
       gradientUnits="userSpaceOnUse" />
    <mask
       maskUnits="userSpaceOnUse"
       id="mask3788">
      <path
         style="fill:#a5a5a5;fill-opacity:1;fill-rule:evenodd;stroke:none;display:inline"
         d="M 1095.4062,22.65625 C 1080.1468,30.772667 1064.8794,38.87421 1049.625,47 c 70.15,130.21692 99.6488,281.36359 84.5809,428.53925 -9.5959,96.89426 -38.5658,191.62039 -84.5809,277.46075 15.8495,8.43588 31.7016,16.86693 47.5625,25.28125 77.3008,-143.89685 108.899,-311.81783 89.0646,-474.08987 -11.8306,-98.60223 -42.2166,-194.93669 -89.0646,-282.47263 -0.5938,0.3125 -1.1875,0.625 -1.7813,0.9375 z"
         id="path3790"
         inkscape:connector-curvature="0" />
    </mask>
    <mask
       maskUnits="userSpaceOnUse"
       id="mask3816">
      <path
         sodipodi:type="inkscape:offset"
         inkscape:radius="0"
         inkscape:original="M 1096.2188 16.9375 A 7.50075 7.50075 0 0 0 1092.8125 17.8125 L 1048.7812 41.21875 A 7.50075 7.50075 0 0 0 1045.6875 51.375 C 1101.0736 155.32768 1132.5 273.96402 1132.5 400 C 1132.5 526.03598 1101.0736 644.67232 1045.6875 748.625 A 7.50075 7.50075 0 0 0 1048.7812 758.78125 L 1092.8125 782.1875 A 7.50075 7.50075 0 0 0 1102.9688 779.09375 C 1228.9908 542.08028 1228.9908 257.91972 1102.9688 20.90625 A 7.50075 7.50075 0 0 0 1096.2188 16.9375 z M 1096.3438 24.4375 C 1221.1997 259.25731 1221.1997 540.74269 1096.3438 775.5625 L 1052.3125 752.15625 C 1108.2589 647.15203 1140 527.28285 1140 400 C 1140 272.71715 1108.2589 152.84797 1052.3125 47.84375 L 1096.3438 24.4375 z "
         xlink:href="#path3700"
         style="font-size:medium;font-style:normal;font-variant:normal;font-weight:normal;font-stretch:normal;text-indent:0;text-align:start;text-decoration:none;line-height:normal;letter-spacing:normal;word-spacing:normal;text-transform:none;direction:ltr;block-progression:tb;writing-mode:lr-tb;text-anchor:start;color:#000000;fill:#ffffff;fill-opacity:1;fill-rule:evenodd;stroke:none;stroke-width:15;marker:none;visibility:visible;display:inline;overflow:visible;enable-background:accumulate;font-family:Bitstream Vera Sans;-inkscape-font-specification:Bitstream Vera Sans"
         id="path3818"
         inkscape:href="#path3700"
         d="m 1096.2188,16.9375 a 7.50075,7.50075 0 0 0 -3.4063,0.875 l -44.0313,23.40625 A 7.50075,7.50075 0 0 0 1045.6875,51.375 C 1101.0736,155.32768 1132.5,273.96402 1132.5,400 c 0,126.03598 -31.4264,244.67232 -86.8125,348.625 a 7.50075,7.50075 0 0 0 3.0937,10.15625 l 44.0313,23.40625 a 7.50075,7.50075 0 0 0 10.1563,-3.09375 c 126.022,-237.01347 126.022,-521.17403 0,-758.1875 a 7.50075,7.50075 0 0 0 -6.75,-3.96875 z m 0.125,7.5 c 124.8559,234.81981 124.8559,516.30519 0,751.125 l -44.0313,-23.40625 C 1108.2589,647.15203 1140,527.28285 1140,400 1140,272.71715 1108.2589,152.84797 1052.3125,47.84375 l 44.0313,-23.40625 z" />
    </mask>
    <linearGradient
       inkscape:collect="always"
       xlink:href="#linearGradient4901"
       id="linearGradient3845"
       gradientUnits="userSpaceOnUse"
       x1="1121.5226"
       y1="27.15625"
       x2="1121.5226"
       y2="772.84375" />
    <linearGradient
       inkscape:collect="always"
       xlink:href="#linearGradient4901"
       id="linearGradient3847"
       gradientUnits="userSpaceOnUse"
       x1="1122.1995"
       y1="32.59375"
       x2="1122.1995"
       y2="767.40625" />
    <linearGradient
       inkscape:collect="always"
       xlink:href="#linearGradient4901"
       id="linearGradient3849"
       gradientUnits="userSpaceOnUse"
       x1="1122.5432"
       y1="35.3125"
       x2="1122.5432"
       y2="764.6875" />
    <linearGradient
       inkscape:collect="always"
       xlink:href="#linearGradient4901"
       id="linearGradient3851"
       gradientUnits="userSpaceOnUse"
       x1="1122.8569"
       y1="38.03125"
       x2="1122.8569"
       y2="762" />
    <linearGradient
       inkscape:collect="always"
       xlink:href="#linearGradient4901"
       id="linearGradient3853"
       gradientUnits="userSpaceOnUse"
       x1="1123.1725"
       y1="40.75"
       x2="1123.1725"
       y2="759.28125" />
    <linearGradient
       inkscape:collect="always"
       xlink:href="#linearGradient4901"
       id="linearGradient3856"
       gradientUnits="userSpaceOnUse"
       x1="1123.1725"
       y1="40.75"
       x2="1123.1725"
       y2="759.28125" />
    <linearGradient
       inkscape:collect="always"
       xlink:href="#linearGradient4901"
       id="linearGradient3859"
       gradientUnits="userSpaceOnUse"
       x1="1122.8569"
       y1="38.03125"
       x2="1122.8569"
       y2="762" />
    <linearGradient
       inkscape:collect="always"
       xlink:href="#linearGradient4901"
       id="linearGradient3862"
       gradientUnits="userSpaceOnUse"
       x1="1122.5432"
       y1="35.3125"
       x2="1122.5432"
       y2="764.6875" />
    <linearGradient
       inkscape:collect="always"
       xlink:href="#linearGradient4901"
       id="linearGradient3865"
       gradientUnits="userSpaceOnUse"
       x1="1122.1995"
       y1="32.59375"
       x2="1122.1995"
       y2="767.40625" />
    <linearGradient
       inkscape:collect="always"
       xlink:href="#linearGradient4901"
       id="linearGradient3868"
       gradientUnits="userSpaceOnUse"
       x1="1121.5226"
       y1="27.15625"
       x2="1121.5226"
       y2="772.84375" />
    <radialGradient
       inkscape:collect="always"
       xlink:href="#linearGradient4998"
       id="radialGradient3446"
       gradientUnits="userSpaceOnUse"
       cx="746.59094"
       cy="275"
       fx="746.59094"
       fy="275"
       r="84.090912" />
    <radialGradient
       inkscape:collect="always"
       xlink:href="#linearGradient5094"
       id="radialGradient3448"
       gradientUnits="userSpaceOnUse"
       gradientTransform="matrix(1,0,0,0.68750004,0,72.783861)"
       cx="620.72729"
       cy="232.90839"
       fx="620.72729"
       fy="232.90839"
       r="41.783581" />
    <radialGradient
       inkscape:collect="always"
       xlink:href="#linearGradient4998"
       id="radialGradient3456"
       gradientUnits="userSpaceOnUse"
       cx="746.59094"
       cy="275"
       fx="746.59094"
       fy="275"
       r="84.090912" />
    <radialGradient
       inkscape:collect="always"
       xlink:href="#linearGradient5094"
       id="radialGradient3458"
       gradientUnits="userSpaceOnUse"
       gradientTransform="matrix(1,0,0,0.68750004,0,72.783861)"
       cx="620.72729"
       cy="232.90839"
       fx="620.72729"
       fy="232.90839"
       r="41.783581" />
    <radialGradient
       inkscape:collect="always"
       xlink:href="#linearGradient4998"
       id="radialGradient3466"
       gradientUnits="userSpaceOnUse"
       cx="746.59094"
       cy="275"
       fx="746.59094"
       fy="275"
       r="84.090912" />
    <radialGradient
       inkscape:collect="always"
       xlink:href="#linearGradient5094"
       id="radialGradient3468"
       gradientUnits="userSpaceOnUse"
       gradientTransform="matrix(1,0,0,0.68750004,0,72.783861)"
       cx="620.72729"
       cy="232.90839"
       fx="620.72729"
       fy="232.90839"
       r="41.783581" />
    <radialGradient
       inkscape:collect="always"
       xlink:href="#linearGradient4998"
       id="radialGradient3476"
       gradientUnits="userSpaceOnUse"
       cx="746.59094"
       cy="275"
       fx="746.59094"
       fy="275"
       r="84.090912" />
    <radialGradient
       inkscape:collect="always"
       xlink:href="#linearGradient5094"
       id="radialGradient3478"
       gradientUnits="userSpaceOnUse"
       gradientTransform="matrix(1,0,0,0.68750004,0,72.783861)"
       cx="620.72729"
       cy="232.90839"
       fx="620.72729"
       fy="232.90839"
       r="41.783581" />
    <radialGradient
       inkscape:collect="always"
       xlink:href="#linearGradient4998"
       id="radialGradient3486"
       gradientUnits="userSpaceOnUse"
       cx="746.59094"
       cy="275"
       fx="746.59094"
       fy="275"
       r="84.090912" />
    <radialGradient
       inkscape:collect="always"
       xlink:href="#linearGradient5094"
       id="radialGradient3488"
       gradientUnits="userSpaceOnUse"
       gradientTransform="matrix(1,0,0,0.68750004,0,72.783861)"
       cx="620.72729"
       cy="232.90839"
       fx="620.72729"
       fy="232.90839"
       r="41.783581" />
    <radialGradient
       inkscape:collect="always"
       xlink:href="#linearGradient4998"
       id="radialGradient3496"
       gradientUnits="userSpaceOnUse"
       cx="746.59094"
       cy="275"
       fx="746.59094"
       fy="275"
       r="84.090912" />
    <radialGradient
       inkscape:collect="always"
       xlink:href="#linearGradient5094"
       id="radialGradient3498"
       gradientUnits="userSpaceOnUse"
       gradientTransform="matrix(1,0,0,0.68750004,0,72.783861)"
       cx="620.72729"
       cy="232.90839"
       fx="620.72729"
       fy="232.90839"
       r="41.783581" />
    <radialGradient
       inkscape:collect="always"
       xlink:href="#linearGradient4998"
       id="radialGradient3506"
       gradientUnits="userSpaceOnUse"
       cx="746.59094"
       cy="275"
       fx="746.59094"
       fy="275"
       r="84.090912" />
    <radialGradient
       inkscape:collect="always"
       xlink:href="#linearGradient5094"
       id="radialGradient3508"
       gradientUnits="userSpaceOnUse"
       gradientTransform="matrix(1,0,0,0.68750004,0,72.783861)"
       cx="620.72729"
       cy="232.90839"
       fx="620.72729"
       fy="232.90839"
       r="41.783581" />
    <radialGradient
       inkscape:collect="always"
       xlink:href="#linearGradient4998"
       id="radialGradient3516"
       gradientUnits="userSpaceOnUse"
       cx="746.59094"
       cy="275"
       fx="746.59094"
       fy="275"
       r="84.090912" />
    <radialGradient
       inkscape:collect="always"
       xlink:href="#linearGradient5094"
       id="radialGradient3518"
       gradientUnits="userSpaceOnUse"
       gradientTransform="matrix(1,0,0,0.68750004,0,72.783861)"
       cx="620.72729"
       cy="232.90839"
       fx="620.72729"
       fy="232.90839"
       r="41.783581" />
    <radialGradient
       inkscape:collect="always"
       xlink:href="#linearGradient4998"
       id="radialGradient3526"
       gradientUnits="userSpaceOnUse"
       cx="746.59094"
       cy="275"
       fx="746.59094"
       fy="275"
       r="84.090912" />
    <radialGradient
       inkscape:collect="always"
       xlink:href="#linearGradient5094"
       id="radialGradient3528"
       gradientUnits="userSpaceOnUse"
       gradientTransform="matrix(1,0,0,0.68750004,0,72.783861)"
       cx="620.72729"
       cy="232.90839"
       fx="620.72729"
       fy="232.90839"
       r="41.783581" />
  </defs>
  <metadata
     id="metadata7">
    <rdf:RDF>
      <cc:Work
         rdf:about="">
        <dc:format>image/svg+xml</dc:format>
        <dc:type
           rdf:resource="http://purl.org/dc/dcmitype/StillImage" />
      </cc:Work>
    </rdf:RDF>
  </metadata>
  <g
     inkscape:groupmode="layer"
     id="layer8"
     inkscape:label="Background"
     style="display:none;opacity:0.5"
     sodipodi:insensitive="true">
    <rect
       style="fill:#b2b2b2;fill-opacity:1;stroke:none"
       id="rect4669"
       width="6645.4546"
       height="3627.2727"
       x="-2463.6365"
       y="-1127.2727"
       sodipodi:insensitive="true" />
  </g>
  <g
     style="display:none"
     inkscape:label="Hide"
     id="layer2"
     inkscape:groupmode="layer">
    <ellipse
       style="display:inline;opacity:0.5;fill:#ffffff;stroke:none"
       id="path2862"
       transform="matrix(4.6102115,0,0,9.4280903,-1728.7224,-3682.4721)"
       cx="461.74072"
       cy="433.01157"
       rx="160.51324"
       ry="78.488853" />
    <circle
       style="display:inline;opacity:0.51;fill:#ff0000;fill-opacity:1;stroke:none"
       id="path4673"
       transform="matrix(2.017192,0,0,2.017192,-1615.7307,-922.63614)"
       cx="994.31818"
       cy="655.68182"
       r="396.59091" />
    <g
       style="display:inline"
       id="g2858">
      <path
         style="display:inline;fill:none;stroke:#ffffff;stroke-width:5;stroke-miterlimit:4;stroke-dasharray:none;stroke-opacity:1;filter:url(#filter3666)"
         d="m 1096.3438,24.4375 -44.0313,23.40625 C 1108.2589,152.84797 1140,272.71715 1140,400 c 0,127.28285 -31.7411,247.15203 -87.6875,352.15625 l 44.0313,23.40625 c 124.8559,-234.81981 124.8559,-516.30519 0,-751.125 z"
         id="path3647"
         inkscape:connector-curvature="0" />
      <path
         style="display:inline;fill:#ffffff;fill-rule:evenodd;stroke:none"
         d="m 1100.5,11.03125 -61.2812,33.5625 C 1097.0894,150.07901 1130,271.19169 1130,400 c 0,128.80831 -32.9106,249.92099 -90.7812,355.40625 l 61.2812,33.5625 c 132.6821,-242.34889 132.6821,-535.58861 0,-777.9375 z m -4.1562,13.40625 c 124.8558,234.81981 124.8558,516.30519 0,751.125 l -44.0313,-23.40625 C 1108.2589,647.15203 1140,527.28285 1140,400 1140,272.71715 1108.2589,152.84797 1052.3125,47.84375 Z"
         id="path2853"
         sodipodi:nodetypes="ccsccccccscc"
         inkscape:connector-curvature="0" />
    </g>
  </g>
  <g
     inkscape:groupmode="layer"
     id="layer6"
     inkscape:label="Export Selection"
     style="display:none">
    <rect
       y="-100"
       x="1000"
       height="1000"
       width="250"
       id="rect2896"
       style="display:inline;opacity:0.3;fill:#b2b2b2;fill-opacity:1;stroke:none"
       inkscape:export-filename="MainBar.png"
       inkscape:export-xdpi="46.080002"
       inkscape:export-ydpi="46.080002" />
  </g>
  <g
     inkscape:groupmode="layer"
     id="layer3"
     inkscape:label="Right"
     style="display:inline">
    <g
       style="display:inline"
       id="g3964">
      <g
         id="use5091"
         style="display:inline"
         transform="matrix(0.21283786,0,0,0.21283786,952.14222,688.51352)">
        <circle
           r="84.090912"
           cy="275"
           cx="746.59094"
           style="fill:url(#radialGradient3446);fill-opacity:1;stroke:none"
           id="circle3442"
           transform="translate(-107.95455,4.5454546)" />
        <ellipse
           ry="28.726213"
           rx="41.783581"
           cy="232.90839"
           cx="620.72729"
           style="fill:url(#radialGradient3448);fill-opacity:1;stroke:none"
           id="ellipse3444"
           transform="matrix(0.5333139,0.93420309,-1.6073358,0.95523957,652.79736,-559.21526)" />
      </g>
      <g
         id="use2893"
         style="display:inline"
         transform="matrix(0.14356051,0,0,0.14356051,993.7738,685.58172)">
        <circle
           r="84.090912"
           cy="275"
           cx="746.59094"
           style="fill:url(#radialGradient3456);fill-opacity:1;stroke:none"
           id="circle3452"
           transform="translate(-107.95455,4.5454546)" />
        <ellipse
           ry="28.726213"
           rx="41.783581"
           cy="232.90839"
           cx="620.72729"
           style="fill:url(#radialGradient3458);fill-opacity:1;stroke:none"
           id="ellipse3454"
           transform="matrix(0.5333139,0.93420309,-1.6073358,0.95523957,652.79736,-559.21526)" />
      </g>
      <g
         id="use2895"
         style="display:inline"
         transform="matrix(0.09101136,0,0,0.09101136,1054.2513,650.85396)">
        <circle
           r="84.090912"
           cy="275"
           cx="746.59094"
           style="fill:url(#radialGradient3466);fill-opacity:1;stroke:none"
           id="circle3462"
           transform="translate(-107.95455,4.5454546)" />
        <ellipse
           ry="28.726213"
           rx="41.783581"
           cy="232.90839"
           cx="620.72729"
           style="fill:url(#radialGradient3468);fill-opacity:1;stroke:none"
           id="ellipse3464"
           transform="matrix(0.5333139,0.93420309,-1.6073358,0.95523957,652.79736,-559.21526)" />
      </g>
      <g
         id="use2897"
         style="display:inline"
         transform="matrix(0.11967453,0,0,0.11967453,1045.1863,606.68271)">
        <circle
           r="84.090912"
           cy="275"
           cx="746.59094"
           style="fill:url(#radialGradient3476);fill-opacity:1;stroke:none"
           id="circle3472"
           transform="translate(-107.95455,4.5454546)" />
        <ellipse
           ry="28.726213"
           rx="41.783581"
           cy="232.90839"
           cx="620.72729"
           style="fill:url(#radialGradient3478);fill-opacity:1;stroke:none"
           id="ellipse3474"
           transform="matrix(0.5333139,0.93420309,-1.6073358,0.95523957,652.79736,-559.21526)" />
      </g>
      <g
         id="use2899"
         style="display:inline"
         transform="matrix(0.11967453,0,0,0.11967453,1065.6763,582.17503)">
        <circle
           r="84.090912"
           cy="275"
           cx="746.59094"
           style="fill:url(#radialGradient3486);fill-opacity:1;stroke:none"
           id="circle3482"
           transform="translate(-107.95455,4.5454546)" />
        <ellipse
           ry="28.726213"
           rx="41.783581"
           cy="232.90839"
           cx="620.72729"
           style="fill:url(#radialGradient3488);fill-opacity:1;stroke:none"
           id="ellipse3484"
           transform="matrix(0.5333139,0.93420309,-1.6073358,0.95523957,652.79736,-559.21526)" />
      </g>
      <g
         id="use2901"
         style="display:inline"
         transform="matrix(0.18178249,0,0,0.18178249,996.2821,642.75512)">
        <circle
           r="84.090912"
           cy="275"
           cx="746.59094"
           style="fill:url(#radialGradient3496);fill-opacity:1;stroke:none"
           id="circle3492"
           transform="translate(-107.95455,4.5454546)" />
        <ellipse
           ry="28.726213"
           rx="41.783581"
           cy="232.90839"
           cx="620.72729"
           style="fill:url(#radialGradient3498);fill-opacity:1;stroke:none"
           id="ellipse3494"
           transform="matrix(0.5333139,0.93420309,-1.6073358,0.95523957,652.79736,-559.21526)" />
      </g>
      <g
         id="use2903"
         style="display:inline"
         transform="matrix(0.21283786,0,0,0.21283786,974.64107,610.1693)">
        <circle
           r="84.090912"
           cy="275"
           cx="746.59094"
           style="fill:url(#radialGradient3506);fill-opacity:1;stroke:none"
           id="circle3502"
           transform="translate(-107.95455,4.5454546)" />
        <ellipse
           ry="28.726213"
           rx="41.783581"
           cy="232.90839"
           cx="620.72729"
           style="fill:url(#radialGradient3508);fill-opacity:1;stroke:none"
           id="ellipse3504"
           transform="matrix(0.5333139,0.93420309,-1.6073358,0.95523957,652.79736,-559.21526)" />
      </g>
      <g
         id="use2905"
         style="display:inline"
         transform="matrix(0.08145697,0,0,0.08145697,1093.2972,501.25573)">
        <circle
           r="84.090912"
           cy="275"
           cx="746.59094"
           style="fill:url(#radialGradient3516);fill-opacity:1;stroke:none"
           id="circle3512"
           transform="translate(-107.95455,4.5454546)" />
        <ellipse
           ry="28.726213"
           rx="41.783581"
           cy="232.90839"
           cx="620.72729"
           style="fill:url(#radialGradient3518);fill-opacity:1;stroke:none"
           id="ellipse3514"
           transform="matrix(0.5333139,0.93420309,-1.6073358,0.95523957,652.79736,-559.21526)" />
      </g>
      <g
         id="use2907"
         style="display:inline"
         transform="matrix(0.18178249,0,0,0.18178249,1026.0127,505.75318)">
        <circle
           r="84.090912"
           cy="275"
           cx="746.59094"
           style="fill:url(#radialGradient3526);fill-opacity:1;stroke:none"
           id="circle3522"
           transform="translate(-107.95455,4.5454546)" />
        <ellipse
           ry="28.726213"
           rx="41.783581"
           cy="232.90839"
           cx="620.72729"
           style="fill:url(#radialGradient3528);fill-opacity:1;stroke:none"
           id="ellipse3524"
           transform="matrix(0.5333139,0.93420309,-1.6073358,0.95523957,652.79736,-559.21526)" />
      </g>
    </g>
    <g
       style="display:inline"
       id="g3871">
      <path
         style="display:inline;fill:url(#linearGradient3868);fill-opacity:1;fill-rule:evenodd;stroke:none"
         d="m 1055.0312,48.6875 c 69.8164,131.13962 98.6305,283.3373 82.7873,431.1093 -9.9437,94.688 -38.2046,187.4088 -82.7873,271.5157 13.4896,7.17708 26.9792,14.35417 40.4688,21.53125 76.7542,-144.40724 107.2065,-312.8618 85.875,-475.21875 -12.1225,-94.31343 -41.3704,-186.42927 -85.875,-270.46875 -13.4896,7.177083 -26.9792,14.354167 -40.4688,21.53125 z"
         id="path4421"
         inkscape:connector-curvature="0" />
      <path
         style="display:inline;fill:url(#linearGradient3865);fill-opacity:1;fill-rule:evenodd;stroke:none"
         d="m 1060.4688,50.34375 c 90.7035,172.24086 110.3458,380.52101 53.8054,566.89896 -13.6795,45.74228 -31.7652,90.10354 -53.8367,132.41354 11.125,5.91667 22.25,11.83333 33.375,17.75 90.0854,-170.86399 113.9912,-375.85257 65.6762,-563.10371 -15.1775,-59.54813 -37.1521,-117.393363 -65.7075,-171.70879 -11.1041,5.916667 -22.2083,11.833333 -33.3124,17.75 z"
         id="path4423"
         inkscape:connector-curvature="0" />
      <path
         style="display:inline;fill:url(#linearGradient3862);fill-opacity:1;fill-rule:evenodd;stroke:none"
         d="m 1063.1562,51.15625 c 95.5914,182.52472 111.3632,405.1609 42.3887,599.39571 -11.7379,33.74984 -26.0269,66.54025 -42.3887,98.26054 9.9376,5.29167 19.875,10.58333 29.8126,15.875 94.1144,-179.39051 114.7734,-396.36438 56.1499,-590.4708 -14.299,-47.95942 -33.0126,-94.607833 -56.1812,-138.9042 -9.9271,5.28125 -19.8542,10.5625 -29.7813,15.84375 z"
         id="path4425"
         inkscape:connector-curvature="0" />
      <path
         style="display:inline;fill:url(#linearGradient3859);fill-opacity:1;fill-rule:evenodd;stroke:none"
         d="m 1065.8438,52 c 98.2402,188.62113 111.249,419.64516 34.7187,618.125 -10.1252,26.56981 -21.7401,52.56468 -34.75,77.84375 8.7708,4.67708 17.5417,9.35417 26.3125,14.03125 97.3854,-186.6906 114.8499,-413.82838 46.8135,-613.33126 -12.805,-38.05432 -28.3595,-75.084785 -46.8447,-110.63749 -8.7501,4.65625 -17.5,9.3125 -26.25,13.96875 z"
         id="path4427"
         inkscape:connector-curvature="0" />
      <path
         style="display:inline;fill:url(#linearGradient3856);fill-opacity:1;fill-rule:evenodd;stroke:none"
         d="m 1068.5312,52.8125 c 101.6327,196.34243 111.1093,438.09317 24.4583,641.59717 -7.4571,17.91317 -15.7062,35.46931 -24.5207,52.74658 7.6041,4.04167 15.2083,8.08333 22.8124,12.125 100.3584,-193.4651 114.446,-430.08538 37.2361,-634.03079 -10.745,-28.936539 -23.129,-57.120589 -37.2673,-84.50046 -7.5729,4.020833 -15.1458,8.041667 -22.7188,12.0625 z"
         id="path4429"
         inkscape:connector-curvature="0" />
    </g>
    <path
       inkscape:connector-curvature="0"
       id="path4419"
       d="m 1096.3438,24.4375 -44.0313,23.40625 C 1108.2589,152.84797 1140,272.71715 1140,400 c 0,127.28285 -31.7411,247.15203 -87.6875,352.15625 l 44.0313,23.40625 c 124.8559,-234.81981 124.8559,-516.30519 0,-751.125 z"
       style="display:inline;fill:#ffffff;fill-opacity:1;fill-rule:evenodd;stroke:none" />
  </g>
</svg>
